<?xml version="1.0" encoding="UTF-8"?>
<svg width="1200pt" height="1200pt" version="1.1" viewBox="0 0 1200 1200" xmlns="http://www.w3.org/2000/svg">
 <path d="m1200 330.36v86.641c-2.2812 16.559-4.4414 33.121-6.7188 49.68-11.527 75.77-38.703 148.31-79.801 213-60 98.641-140.16 180-227.28 255.36-113.03 95.02-233.67 180.59-360.72 255.84-2.7617-5.8789-5.5195-11.16-7.9219-16.68-55.988-124.15-134.29-236.98-231-332.88-50.52-50.52-102.48-99.719-152.76-150.48h0.003906c-40.77-39.434-74.207-85.793-98.762-136.92-29.188-65.566-40.527-137.68-32.879-209.04 3.2188-51.355 19.762-100.98 48-144 41.16-61.078 100.2-95.039 171.12-109.08 84.98-18.355 173.73-5.582 250.08 36 44.547 23.289 82.297 57.73 109.56 99.961 3.7188-6.8398 7.1992-13.199 10.559-19.559v-0.003906c23.922-47.227 55.602-90.102 93.719-126.84 27.637-26.648 60.875-46.793 97.289-58.957 36.414-12.168 75.086-16.047 113.19-11.363 77.691 6.4844 150.39 40.938 204.6 96.961 51.324 53.215 84.613 121.22 95.16 194.4 1.4375 9.6016 3.2383 18.84 4.5586 27.961z"/>
</svg>
